<?xml version="1.0" standalone="no"?><!DOCTYPE svg PUBLIC "-//W3C//DTD SVG 1.1//EN" "http://www.w3.org/Graphics/SVG/1.1/DTD/svg11.dtd"><svg t="1669546149547" class="icon" viewBox="0 0 1024 1024" version="1.1" xmlns="http://www.w3.org/2000/svg" p-id="20918" xmlns:xlink="http://www.w3.org/1999/xlink" width="200" height="200"><path d="M213.333333 256v213.333333H149.333333a21.333333 21.333333 0 0 0-21.333333 21.333334v42.666666a21.333333 21.333333 0 0 0 21.333333 21.333334H213.333333v213.333333H149.333333a21.333333 21.333333 0 0 0-21.333333 21.333333v42.666667a21.333333 21.333333 0 0 0 21.333333 21.333333H213.333333a85.333333 85.333333 0 0 0 85.333334 85.333334h512a85.333333 85.333333 0 0 0 85.333333-85.333334V170.666667a85.333333 85.333333 0 0 0-85.333333-85.333334H298.666667a85.333333 85.333333 0 0 0-85.333334 85.333334H149.333333a21.333333 21.333333 0 0 0-21.333333 21.333333v42.666667a21.333333 21.333333 0 0 0 21.333333 21.333333z m341.333334-64a21.333333 21.333333 0 0 1 21.333333-21.333333h213.333333a21.333333 21.333333 0 0 1 21.333334 21.333333v298.666667a21.333333 21.333333 0 0 1-33.28 17.92l-82.773334-55.466667a22.186667 22.186667 0 0 0-23.893333 0l-82.773333 55.466667a21.333333 21.333333 0 0 1-33.28-17.92z" p-id="20919" fill="#707070"></path></svg>