<?xml version="1.0" standalone="no"?><!DOCTYPE svg PUBLIC "-//W3C//DTD SVG 1.1//EN" "http://www.w3.org/Graphics/SVG/1.1/DTD/svg11.dtd"><svg t="1669473976308" class="icon" viewBox="0 0 1024 1024" version="1.1" xmlns="http://www.w3.org/2000/svg" p-id="2782" xmlns:xlink="http://www.w3.org/1999/xlink" width="200" height="200"><path d="M834.722572 29.471281C718.095108-24.84836 575.90546-4.079086 480.04727 91.779104c-87.870007 87.870007-111.834555 212.485654-75.088915 322.722573L35.904324 785.153344c-54.319641 54.319641-54.319641 143.787285 0 198.106925s143.787285 54.319641 198.106926 0L603.06528 614.206239c110.236918 36.745639 234.852565 11.183455 322.722573-75.088916 95.85819-95.85819 115.029828-236.450201 62.307823-353.077665-17.574001 19.171638-46.331458 44.733822-86.272371 81.479461-43.136185 43.136185-105.444009 43.136185-148.580194 0s-43.136185-105.444009 0-148.580194C793.184023 77.400376 836.320209 29.471281 834.722572 29.471281zM488.035453 430.478042c-49.526731-92.662917-36.745639-210.888018 41.538548-289.172206 46.331458-46.331458 108.639282-68.698369 169.349469-70.296006-63.90546 68.698369-63.90546 175.740015 3.195273 242.840747s174.142378 67.100733 242.840748 3.195273c0 60.710187-22.366911 123.01801-70.296006 169.349469-78.284188 78.284188-196.509289 91.06528-289.172206 41.538549L184.484518 932.135901c-27.15982 27.15982-71.893642 27.15982-99.053463 0s-27.15982-71.893642 0-99.053462l402.604398-402.604397z" p-id="2783" fill="#707070"></path></svg>